<?xml version="1.0" encoding="UTF-8"?><svg id="Layer_1" xmlns="http://www.w3.org/2000/svg" viewBox="0 0 1800 600"><defs><style>.cls-1{letter-spacing:-.02em;}.cls-2{letter-spacing:-.02em;}.cls-3{fill:#e7e6e6;}.cls-4{fill:#ffb800;}.cls-5{fill:#091740;}.cls-6,.cls-7{fill:#82ccc3;}.cls-8{letter-spacing:0em;}.cls-9{letter-spacing:0em;}.cls-7{stroke:#231f20;}.cls-7,.cls-10{stroke-miterlimit:10;}.cls-10{fill:none;stroke:#ffb800;stroke-width:4px;}.cls-11{letter-spacing:-.01em;}.cls-12{font-family:Gilroy-SemiBold, Gilroy;font-size:84px;}.cls-13{letter-spacing:0em;}.cls-14{letter-spacing:0em;}.cls-15{letter-spacing:-.01em;}</style></defs><rect class="cls-7" width="1800" height="600"/><rect class="cls-5" x="677.82" y="205.9" width="986.79" height="106.02"/><text class="cls-12" transform="translate(677.82 286.46)"><tspan class="cls-6"><tspan x="0" y="0"> </tspan><tspan class="cls-9" x="21" y="0">C</tspan><tspan x="81.98" y="0">omp</tspan><tspan class="cls-14" x="256.62" y="0">o</tspan><tspan class="cls-15" x="306.01" y="0">s</tspan><tspan x="343.64" y="0">able </tspan><tspan class="cls-8" x="538.94" y="0">C</tspan><tspan x="599.92" y="0">omme</tspan><tspan class="cls-1" x="842.01" y="0">r</tspan><tspan class="cls-11" x="868.8" y="0">c</tspan><tspan x="913.41" y="0">e </tspan></tspan><tspan class="cls-5"><tspan class="cls-9" x="0" y="110">J</tspan><tspan x="46.87" y="110">oin </tspan><tspan class="cls-13" x="185.64" y="110">t</tspan><tspan x="217.31" y="110">he M</tspan><tspan class="cls-2" x="403.2" y="110">ov</tspan><tspan x="494.17" y="110">ement.</tspan></tspan></text><polygon class="cls-3" points="401.75 295.79 277.26 367.66 152.77 295.79 152.77 152.04 277.26 80.17 401.75 152.04 401.75 295.79"/><polygon class="cls-10" points="526.24 418.24 401.75 490.11 277.26 418.24 277.26 274.49 401.75 202.62 526.24 274.49 526.24 418.24"/><polygon class="cls-5" points="450.73 510.14 401.75 538.42 352.77 510.14 352.77 453.59 401.75 425.31 450.73 453.59 450.73 510.14"/><polygon class="cls-5" points="390.12 146.41 341.14 174.69 292.16 146.41 292.16 89.86 341.14 61.58 390.12 89.86 390.12 146.41"/><polygon class="cls-4" points="225.7 377.26 142.47 425.31 59.25 377.26 59.25 281.15 142.47 233.1 225.7 281.15 225.7 377.26"/></svg>