<?xml version="1.0" encoding="UTF-8"?><svg id="Layer_1" xmlns="http://www.w3.org/2000/svg" viewBox="0 0 1800 600"><defs><style>.cls-1{letter-spacing:-.02em;}.cls-1,.cls-2,.cls-3,.cls-4,.cls-5,.cls-6,.cls-7,.cls-8{fill:#091740;}.cls-9{letter-spacing:-.02em;}.cls-2{letter-spacing:-.01em;}.cls-10{fill:#fff;}.cls-11{fill:#ffb800;}.cls-12{fill:#82ccc3;}.cls-4{letter-spacing:0em;}.cls-5,.cls-13{letter-spacing:0em;}.cls-6{stroke:#231f20;}.cls-6,.cls-14{stroke-miterlimit:10;}.cls-7{letter-spacing:-.01em;}.cls-14{fill:none;stroke:#ffb800;stroke-width:4px;}.cls-15{font-family:Gilroy-SemiBold, Gilroy;font-size:84px;}.cls-16{letter-spacing:0em;}.cls-8{letter-spacing:0em;}</style></defs><rect class="cls-6" width="1800" height="600"/><rect class="cls-12" x="677.82" y="205.9" width="986.79" height="106.02"/><text class="cls-15" transform="translate(677.82 286.46)"><tspan class="cls-10" x="0" y="0"> </tspan><tspan class="cls-5" x="21" y="0">C</tspan><tspan class="cls-3" x="81.98" y="0">omp</tspan><tspan class="cls-8" x="256.62" y="0">o</tspan><tspan class="cls-2" x="306.01" y="0">s</tspan><tspan class="cls-3" x="343.64" y="0">able </tspan><tspan class="cls-4" x="538.94" y="0">C</tspan><tspan class="cls-3" x="599.92" y="0">omme</tspan><tspan class="cls-1" x="842.01" y="0">r</tspan><tspan class="cls-7" x="868.8" y="0">c</tspan><tspan class="cls-3" x="913.41" y="0">e</tspan><tspan class="cls-10" x="962.29" y="0"> </tspan><tspan class="cls-10"><tspan class="cls-13" x="0" y="110">J</tspan><tspan x="46.87" y="110">oin </tspan><tspan class="cls-16" x="185.64" y="110">t</tspan><tspan x="217.31" y="110">he M</tspan><tspan class="cls-9" x="403.2" y="110">ov</tspan><tspan x="494.17" y="110">ement.</tspan></tspan></text><polygon class="cls-10" points="404.24 304.32 278.09 377.15 151.94 304.32 151.94 158.65 278.09 85.82 404.24 158.65 404.24 304.32"/><polygon class="cls-14" points="530.39 423.04 404.24 495.88 278.09 423.04 278.09 277.38 404.24 204.54 530.39 277.38 530.39 423.04"/><polygon class="cls-12" points="392.01 145.09 342.37 173.74 292.74 145.09 292.74 87.78 342.37 59.12 392.01 87.78 392.01 145.09"/><polygon class="cls-12" points="453.87 512.22 404.24 540.88 354.61 512.22 354.61 454.91 404.24 426.26 453.87 454.91 453.87 512.22"/><polygon class="cls-11" points="221.63 377.57 137.29 426.26 52.95 377.57 52.95 280.18 137.29 231.48 221.63 280.18 221.63 377.57"/></svg>